<svg width="39" height="34" viewBox="0 0 39 34" fill="none" xmlns="http://www.w3.org/2000/svg">
<path d="M16.4351 15.5096V13.4517C16.4351 12.3601 16.0014 11.3133 15.2296 10.5414C14.4577 9.76956 13.4109 9.33594 12.3193 9.33594H5.11673C4.02517 9.33594 2.97831 9.76956 2.20645 10.5414C1.4346 11.3133 1.00098 12.3601 1.00098 13.4517V15.5096" fill="white"/>
<path d="M16.4351 15.5096V13.4517C16.4351 12.3601 16.0014 11.3133 15.2296 10.5414C14.4577 9.76956 13.4109 9.33594 12.3193 9.33594H5.11673C4.02517 9.33594 2.97831 9.76956 2.20645 10.5414C1.4346 11.3133 1.00098 12.3601 1.00098 13.4517V15.5096" stroke="white" stroke-width="2" stroke-linecap="round" stroke-linejoin="round"/>
<path d="M16.4907 16.5088V14.1335C16.4907 12.8735 16.054 11.6652 15.2766 10.7742C14.4993 9.88333 13.4449 9.38281 12.3455 9.38281H5.09147C3.9921 9.38281 2.93776 9.88333 2.16038 10.7742C1.38301 11.6652 0.946289 12.8735 0.946289 14.1335V16.5088" fill="white"/>
<path d="M36.9731 33.9893V31.6139C36.9731 30.354 36.5339 29.1456 35.752 28.2547C34.9702 27.3638 33.9097 26.8633 32.804 26.8633H25.508C24.4023 26.8633 23.3418 27.3638 22.56 28.2547C21.7781 29.1456 21.3389 30.354 21.3389 31.6139V33.9893" fill="white"/>
<path d="M8.7183 9.23151C10.9914 9.23151 12.8341 7.38883 12.8341 5.11576C12.8341 2.84269 10.9914 1 8.7183 1C6.44523 1 4.60254 2.84269 4.60254 5.11576C4.60254 7.38883 6.44523 9.23151 8.7183 9.23151Z" fill="white" stroke="white" stroke-width="2" stroke-linecap="round" stroke-linejoin="round"/>
<path d="M37.0151 32.9979V30.94C37.0151 29.8484 36.5815 28.8016 35.8097 28.0297C35.0378 27.2578 33.9909 26.8242 32.8994 26.8242H25.6968C24.6052 26.8242 23.5584 27.2578 22.7865 28.0297C22.0147 28.8016 21.5811 29.8484 21.5811 30.94V32.9979" fill="white"/>
<path d="M37.0151 32.9979V30.94C37.0151 29.8484 36.5815 28.8016 35.8097 28.0297C35.0378 27.2578 33.9909 26.8242 32.8994 26.8242H25.6968C24.6052 26.8242 23.5584 27.2578 22.7865 28.0297C22.0147 28.8016 21.5811 29.8484 21.5811 30.94V32.9979" stroke="white" stroke-width="2" stroke-linecap="round" stroke-linejoin="round"/>
<path d="M29.2984 26.7198C31.5714 26.7198 33.4141 24.8771 33.4141 22.604C33.4141 20.331 31.5714 18.4883 29.2984 18.4883C27.0253 18.4883 25.1826 20.331 25.1826 22.604C25.1826 24.8771 27.0253 26.7198 29.2984 26.7198Z" fill="white" stroke="white" stroke-width="2" stroke-linecap="round" stroke-linejoin="round"/>
<path d="M18.4932 1L37.0141 1" stroke="white" stroke-width="2" stroke-linecap="round"/>
<path d="M15.4053 32.8984H1.00013" stroke="white" stroke-width="2" stroke-linecap="round"/>
<path d="M37.0146 5.11719L37.0146 15.4066" stroke="white" stroke-width="2" stroke-linecap="round"/>
<path d="M1.00098 28.7812L1.00098 27.7523" stroke="white" stroke-width="2" stroke-linecap="round"/>
<path d="M37.0146 19.5234L37.0146 18.4945" stroke="white" stroke-width="2" stroke-linecap="round"/>
<path d="M1.00098 24.6641L1.00098 19.5194" stroke="white" stroke-width="2" stroke-linecap="round"/>
</svg>
