<svg width="34" height="34" viewBox="0 0 34 34" fill="none" xmlns="http://www.w3.org/2000/svg">
<path d="M21.3633 28.6367V25" stroke="white" stroke-width="2" stroke-miterlimit="10" stroke-linecap="square"/>
<path d="M29.2739 26.3651L26.4531 23.5435V18.4531" fill="white"/>
<path d="M29.2739 26.3651L26.4531 23.5435V18.4531" stroke="white" stroke-width="2" stroke-miterlimit="10" stroke-linecap="square"/>
<path d="M5.45117 26.3651L8.27198 23.5435V18.4531" fill="white"/>
<path d="M5.45117 26.3651L8.27198 23.5435V18.4531" stroke="white" stroke-width="2" stroke-miterlimit="10" stroke-linecap="square"/>
<path d="M30.8164 30.0898C32.0212 30.0898 32.998 29.113 32.998 27.9082C32.998 26.7033 32.0212 25.7266 30.8164 25.7266C29.6115 25.7266 28.6348 26.7033 28.6348 27.9082C28.6348 29.113 29.6115 30.0898 30.8164 30.0898Z" fill="white" stroke="white" stroke-width="2" stroke-miterlimit="10" stroke-linecap="square"/>
<path d="M21.3613 32.9999C22.5662 32.9999 23.5429 32.0232 23.5429 30.8183C23.5429 29.6135 22.5662 28.6367 21.3613 28.6367C20.1564 28.6367 19.1797 29.6135 19.1797 30.8183C19.1797 32.0232 20.1564 32.9999 21.3613 32.9999Z" fill="white" stroke="white" stroke-width="2" stroke-miterlimit="10" stroke-linecap="square"/>
<path d="M12.6348 28.6367V25" stroke="white" stroke-width="2" stroke-miterlimit="10" stroke-linecap="square"/>
<path d="M12.6347 32.9999C13.8396 32.9999 14.8163 32.0232 14.8163 30.8183C14.8163 29.6135 13.8396 28.6367 12.6347 28.6367C11.4299 28.6367 10.4531 29.6135 10.4531 30.8183C10.4531 32.0232 11.4299 32.9999 12.6347 32.9999Z" fill="white" stroke="white" stroke-width="2" stroke-miterlimit="10" stroke-linecap="square"/>
<path d="M3.91012 30.0898C5.11499 30.0898 6.09172 29.113 6.09172 27.9082C6.09172 26.7033 5.11499 25.7266 3.91012 25.7266C2.70525 25.7266 1.72852 26.7033 1.72852 27.9082C1.72852 29.113 2.70525 30.0898 3.91012 30.0898Z" fill="white" stroke="white" stroke-width="2" stroke-miterlimit="10" stroke-linecap="square"/>
<path d="M16.998 21.3631C19.4077 21.3631 21.3612 19.4097 21.3612 16.9999C21.3612 14.5902 19.4077 12.6367 16.998 12.6367C14.5882 12.6367 12.6348 14.5902 12.6348 16.9999C12.6348 19.4097 14.5882 21.3631 16.998 21.3631Z" fill="white" stroke="white" stroke-width="2" stroke-miterlimit="10" stroke-linecap="square"/>
<path d="M32.9968 17.7256V14.8168L28.3428 14.4285C28.0515 13.1415 27.5419 11.9139 26.836 10.799L29.8575 7.22848L26.7684 4.14296L23.1978 7.16448C22.0833 6.45719 20.8556 5.94632 19.5684 5.65409L19.18 1H14.8168L14.4285 5.65409C13.1415 5.94536 11.9139 6.45498 10.799 7.16085L7.22848 4.13933L4.14296 7.22848L7.16448 10.799C6.45719 11.9136 5.94632 13.1412 5.65409 14.4285L1 14.8168V17.7256" stroke="white" stroke-width="2" stroke-miterlimit="10" stroke-linecap="square"/>
</svg>
