<svg width="33" height="33" viewBox="0 0 33 33" fill="none" xmlns="http://www.w3.org/2000/svg">
<circle cx="16.5156" cy="16.832" r="15" stroke="white" stroke-width="2"/>
<path d="M16.5137 1.83203C18.7749 1.83203 20.9787 3.31616 22.668 6.04492C24.3476 8.7583 25.4189 12.5696 25.4189 16.832C25.4189 21.0945 24.3476 24.9058 22.668 27.6191C20.9787 30.3479 18.7749 31.832 16.5137 31.832C14.2526 31.8318 12.0495 30.3477 10.3604 27.6191C8.68074 24.9058 7.60938 21.0945 7.60938 16.832C7.60938 12.5696 8.68074 8.75831 10.3604 6.04492C12.0495 3.31634 14.2526 1.83223 16.5137 1.83203Z" stroke="white" stroke-width="2"/>
<path d="M16.5156 1.59375L16.5156 31.308" stroke="white" stroke-width="2" stroke-linecap="round"/>
<path d="M31.7539 16.832L1.27772 16.832" stroke="white" stroke-width="2" stroke-linecap="round"/>
</svg>
