<svg width="31" height="35" viewBox="0 0 31 35" fill="none" xmlns="http://www.w3.org/2000/svg">
<path d="M6.33398 7.85547H12.4292" stroke="white" stroke-width="2" stroke-linecap="round"/>
<path d="M6.33398 12.4258H17.7626" stroke="white" stroke-width="2" stroke-linecap="round"/>
<path d="M6.33398 17H13.1911" stroke="white" stroke-width="2" stroke-linecap="round"/>
<path d="M20.0469 24.9985L22.2925 26.9033L25.3802 23.0938" stroke="white" stroke-width="2" stroke-linecap="round"/>
<path d="M29.0621 19.2857L22.3337 17L15.513 19.2857C15.4579 20.8095 15.424 24.3905 15.7288 26.5238C16.0336 28.6571 20.6829 31.7302 22.7147 33C25.0004 31.2222 29.0621 29.5714 29.0621 26.1429V19.2857Z" fill="white" stroke="white" stroke-width="2"/>
<path d="M22.3333 12.4286V6.71429V4C22.3333 2.34315 20.9902 1 19.3333 1H4C2.34315 1 1 2.34314 1 4V23.9048C1 25.5616 2.34315 26.9048 4 26.9048H11.6667" stroke="white" stroke-width="2" stroke-linecap="round"/>
</svg>
