<svg width="33" height="33" viewBox="0 0 33 33" fill="none" xmlns="http://www.w3.org/2000/svg">
<path d="M18.5998 21.3956C18.9059 21.1805 19.3124 20.782 19.3124 19.7937C19.3124 19.0916 18.836 18.6707 17.8186 18.2352V21.744C18.1155 21.6529 18.3887 21.5447 18.5998 21.3956Z" fill="white"/>
<path d="M16.4991 0.857666C7.76738 0.857666 0.664062 7.96097 0.664062 16.6926C0.664062 25.4243 7.76738 32.5276 16.4991 32.5276C25.2307 32.5276 32.3341 25.4243 32.3341 16.6926C32.3341 7.96097 25.2307 0.857666 16.4991 0.857666ZM21.9516 19.795C21.9516 21.839 20.954 22.9686 20.116 23.5571C19.4602 24.0176 18.6698 24.2921 17.8186 24.4504V27.2493H15.1795V24.5613C13.6606 24.4465 12.1114 24.0849 10.7721 23.602L9.53166 23.1546L10.4277 20.6725L11.6694 21.1211C12.8834 21.5592 14.0895 21.8205 15.1795 21.9208V17.2904C13.0827 16.5382 10.7562 15.3638 10.7562 12.3789C10.7562 10.8904 11.4464 9.66191 12.7013 8.9203C13.4165 8.49804 14.2769 8.26975 15.1795 8.16286V6.13599H17.8186V8.18266C19.3718 8.36344 20.7943 8.78967 21.5874 9.22777L22.7446 9.86248L21.4739 12.1757L20.3179 11.5397C19.7466 11.2256 18.8136 10.9696 17.8186 10.8311V15.4021C19.835 16.1147 21.9516 17.1466 21.9516 19.795Z" fill="white"/>
<path d="M14.0459 11.194C13.5907 11.4631 13.3954 11.8168 13.3954 12.3789C13.3954 13.3779 13.9615 13.9228 15.1795 14.452V10.8284C14.7466 10.9036 14.3481 11.0145 14.0459 11.194Z" fill="white"/>
</svg>
