<svg width="24" height="32" viewBox="0 0 24 32" fill="none" xmlns="http://www.w3.org/2000/svg">
<path d="M23.5836 14.7088C23.5444 14.5386 23.4637 14.3809 23.3485 14.2497C23.2334 14.1184 23.0875 14.0178 22.924 13.9568L15.3248 11.1071L17.251 1.43657C17.2953 1.21256 17.2666 0.980256 17.1693 0.773699C17.072 0.567143 16.911 0.397198 16.71 0.288773C16.5071 0.180818 16.2742 0.142986 16.0475 0.181163C15.8208 0.219341 15.6131 0.331387 15.4567 0.499862L0.680495 16.3315C0.55942 16.4571 0.471816 16.6111 0.425715 16.7794C0.379614 16.9477 0.376492 17.1248 0.416635 17.2946C0.457939 17.4638 0.539478 17.6205 0.654323 17.7514C0.769167 17.8824 0.913923 17.9836 1.07629 18.0466L8.67548 20.8963L6.74929 30.5668C6.705 30.7908 6.73362 31.0231 6.83096 31.2297C6.9283 31.4362 7.08925 31.6062 7.29021 31.7146C7.44169 31.791 7.60869 31.8317 7.77835 31.8333C7.92173 31.834 8.06368 31.805 8.19535 31.7482C8.32701 31.6915 8.44555 31.6082 8.54355 31.5035L23.3198 15.6719C23.4408 15.5462 23.5284 15.3922 23.5745 15.224C23.6206 15.0557 23.6238 14.8786 23.5836 14.7088Z" fill="white"/>
</svg>
