<svg width="39" height="37" viewBox="0 0 39 37" fill="none" xmlns="http://www.w3.org/2000/svg">
<path d="M36.9124 13.3105L25.8484 11.7026L20.9062 1.68389C20.7625 1.43992 20.5576 1.23768 20.3118 1.09717C20.066 0.95666 19.7878 0.882751 19.5046 0.882751C19.2215 0.882751 18.9433 0.95666 18.6974 1.09717C18.4516 1.23768 18.2468 1.43992 18.1031 1.68389L13.1515 11.7026L2.08745 13.3105C1.79892 13.3521 1.52779 13.4736 1.30472 13.6613C1.08165 13.849 0.91554 14.0953 0.825159 14.3725C0.734779 14.6497 0.723737 14.9466 0.793282 15.2297C0.862827 15.5128 1.01019 15.7708 1.2187 15.9745L9.22651 23.7776L7.33745 34.7979C7.28821 35.0853 7.32035 35.3807 7.43023 35.6507C7.54011 35.9208 7.72334 36.1547 7.95921 36.326C8.19508 36.4973 8.47419 36.5993 8.76496 36.6203C9.05574 36.6413 9.34659 36.5805 9.60464 36.4448L19.4999 31.2433L29.3953 36.4448C29.6533 36.5805 29.9442 36.6413 30.2349 36.6203C30.5257 36.5993 30.8048 36.4973 31.0407 36.326C31.2766 36.1547 31.4598 35.9208 31.5697 35.6507C31.6795 35.3807 31.7117 35.0853 31.6624 34.7979L29.7734 23.7776L37.7812 15.9745C37.9897 15.771 38.1371 15.5132 38.2068 15.2304C38.2765 14.9475 38.2657 14.6508 38.1757 14.3737C38.0856 14.0966 37.9199 13.8502 37.6973 13.6623C37.4746 13.4745 37.2038 13.3526 36.9156 13.3105H36.9124Z" fill="white"/>
</svg>
